<svg width="12" height="89" viewBox="0 0 12 89" fill="none" xmlns="http://www.w3.org/2000/svg">
<path fill-rule="evenodd" clip-rule="evenodd" d="M6 0C9.31371 0 12 2.68629 12 6L12 55C12 58.3137 9.31371 61 6 61C2.68629 61 0 58.3137 0 55L0 6C0 2.68629 2.68629 0 6 0Z" fill="#FFB200"/>
<path fill-rule="evenodd" clip-rule="evenodd" d="M6 21C9.31371 21 12 23.6863 12 27L12 64C12 67.3137 9.31371 70 6 70C2.68629 70 0 67.3137 0 64L0 27C0 23.6863 2.68629 21 6 21Z" fill="#34B53A"/>
<path fill-rule="evenodd" clip-rule="evenodd" d="M6 48C9.31371 48 12 50.6863 12 54L12 83C12 86.3137 9.31371 89 6 89C2.68629 89 0 86.3137 0 83L0 54C0 50.6863 2.68629 48 6 48Z" fill="#4339F2"/>
</svg>
