<svg width="194" height="194" viewBox="0 0 194 194" fill="none" xmlns="http://www.w3.org/2000/svg">
<path fill-rule="evenodd" clip-rule="evenodd" d="M93.2961 0.0744324C146.018 -1.96744 189.99 38.262 193.978 89.5329C194.296 93.6256 191.092 97.1365 186.986 97.1365C183.31 97.1365 180.286 94.2945 180.001 90.6304C176.557 46.3593 138.275 11.7088 92.6152 14.1412C52.1594 16.2942 16.2942 52.1595 14.1401 92.6152C11.7087 138.275 46.3583 176.557 90.6294 180.001C94.2935 180.286 97.1365 183.31 97.1365 186.987C97.1365 191.183 93.7157 194.304 89.5318 193.978C38.262 189.99 -1.96745 146.02 0.0744171 93.2991C2.02615 42.8855 42.8824 2.02817 93.2961 0.0744324Z" fill="#FFE5D3"/>
<path fill-rule="evenodd" clip-rule="evenodd" d="M100.704 193.927C47.982 195.969 4.0103 155.74 0.0217116 104.469C-0.295734 100.376 2.90776 96.8651 7.01351 96.8651C10.6897 96.8651 13.7139 99.7071 13.9993 103.371C17.4431 147.642 55.7248 182.293 101.385 179.86C141.841 177.707 177.706 141.842 179.86 101.386C182.291 55.7264 147.642 17.4448 103.371 14.0009C99.7065 13.7155 96.8635 10.6913 96.8635 7.01514C96.8635 2.81826 100.284 -0.302116 104.468 0.0233407C155.738 4.01193 195.967 47.9816 193.926 100.702C191.974 151.116 151.118 191.973 100.704 193.927Z" fill="#FF3A29"/>
<path fill-rule="evenodd" clip-rule="evenodd" d="M97 140C120.748 140 140 120.748 140 97C140 73.2518 120.748 54 97 54C73.2518 54 54 73.2518 54 97C54 120.748 73.2518 140 97 140Z" fill="#FF3A29"/>
</svg>
