<svg width="584" height="231" viewBox="0 0 584 231" fill="none" xmlns="http://www.w3.org/2000/svg">
<path fill-rule="evenodd" clip-rule="evenodd" d="M6 17C9.31371 17 12 19.6863 12 23L12 158C12 161.314 9.31371 164 6 164C2.68629 164 0 161.314 0 158L0 23C0 19.6863 2.68629 17 6 17Z" fill="#FFB200"/>
<path fill-rule="evenodd" clip-rule="evenodd" d="M6 68C9.31371 68 12 70.6863 12 74L12 180C12 183.314 9.31371 186 6 186C2.68629 186 0 183.314 0 180L0 74C0 70.6863 2.68629 68 6 68Z" fill="#34B53A"/>
<path fill-rule="evenodd" clip-rule="evenodd" d="M6 132C9.31371 132 12 134.686 12 138L12 225C12 228.314 9.31371 231 6 231C2.68629 231 0 228.314 0 225L0 138C0 134.686 2.68629 132 6 132Z" fill="#4339F2"/>
<path fill-rule="evenodd" clip-rule="evenodd" d="M58 74C61.3137 74 64 76.6863 64 80L64 176C64 179.314 61.3137 182 58 182C54.6863 182 52 179.314 52 176L52 80C52 76.6863 54.6863 74 58 74Z" fill="#FFB200"/>
<path fill-rule="evenodd" clip-rule="evenodd" d="M58 111C61.3137 111 64 113.686 64 117L64 192C64 195.314 61.3137 198 58 198C54.6863 198 52 195.314 52 192L52 117C52 113.686 54.6863 111 58 111Z" fill="#34B53A"/>
<path fill-rule="evenodd" clip-rule="evenodd" d="M58 158C61.3137 158 64 160.686 64 164L64 225C64 228.314 61.3137 231 58 231C54.6863 231 52 228.314 52 225L52 164C52 160.686 54.6863 158 58 158Z" fill="#4339F2"/>
<path fill-rule="evenodd" clip-rule="evenodd" d="M110 54C113.314 54 116 56.6863 116 60L116 170C116 173.314 113.314 176 110 176C106.686 176 104 173.314 104 170L104 60C104 56.6863 106.686 54 110 54Z" fill="#FFB200"/>
<path fill-rule="evenodd" clip-rule="evenodd" d="M110 96C113.314 96 116 98.6863 116 102L116 188C116 191.314 113.314 194 110 194C106.686 194 104 191.314 104 188L104 102C104 98.6863 106.686 96 110 96Z" fill="#34B53A"/>
<path fill-rule="evenodd" clip-rule="evenodd" d="M110 149C113.314 149 116 151.686 116 155L116 225C116 228.314 113.314 231 110 231C106.686 231 104 228.314 104 225L104 155C104 151.686 106.686 149 110 149Z" fill="#4339F2"/>
<path fill-rule="evenodd" clip-rule="evenodd" d="M162 17C165.314 17 168 19.6863 168 23L168 158C168 161.314 165.314 164 162 164C158.686 164 156 161.314 156 158L156 23C156 19.6863 158.686 17 162 17Z" fill="#FFB200"/>
<path fill-rule="evenodd" clip-rule="evenodd" d="M162 68C165.314 68 168 70.6863 168 74L168 180C168 183.314 165.314 186 162 186C158.686 186 156 183.314 156 180L156 74C156 70.6863 158.686 68 162 68Z" fill="#34B53A"/>
<path fill-rule="evenodd" clip-rule="evenodd" d="M162 132C165.314 132 168 134.686 168 138L168 225C168 228.314 165.314 231 162 231C158.686 231 156 228.314 156 225L156 138C156 134.686 158.686 132 162 132Z" fill="#4339F2"/>
<path fill-rule="evenodd" clip-rule="evenodd" d="M214 74C217.314 74 220 76.6863 220 80L220 176C220 179.314 217.314 182 214 182C210.686 182 208 179.314 208 176L208 80C208 76.6863 210.686 74 214 74Z" fill="#FFB200"/>
<path fill-rule="evenodd" clip-rule="evenodd" d="M214 111C217.314 111 220 113.686 220 117L220 192C220 195.314 217.314 198 214 198C210.686 198 208 195.314 208 192L208 117C208 113.686 210.686 111 214 111Z" fill="#34B53A"/>
<path fill-rule="evenodd" clip-rule="evenodd" d="M214 158C217.314 158 220 160.686 220 164L220 225C220 228.314 217.314 231 214 231C210.686 231 208 228.314 208 225L208 164C208 160.686 210.686 158 214 158Z" fill="#4339F2"/>
<path fill-rule="evenodd" clip-rule="evenodd" d="M318 79C321.314 79 324 81.6863 324 85L324 177C324 180.314 321.314 183 318 183C314.686 183 312 180.314 312 177L312 85C312 81.6863 314.686 79 318 79Z" fill="#FFB200"/>
<path fill-rule="evenodd" clip-rule="evenodd" d="M318 115C321.314 115 324 117.686 324 121L324 193C324 196.314 321.314 199 318 199C314.686 199 312 196.314 312 193L312 121C312 117.686 314.686 115 318 115Z" fill="#34B53A"/>
<path fill-rule="evenodd" clip-rule="evenodd" d="M318 161C321.314 161 324 163.686 324 167L324 225C324 228.314 321.314 231 318 231C314.686 231 312 228.314 312 225L312 167C312 163.686 314.686 161 318 161Z" fill="#4339F2"/>
<path fill-rule="evenodd" clip-rule="evenodd" d="M370 39C373.314 39 376 41.6863 376 45L376 165C376 168.314 373.314 171 370 171C366.686 171 364 168.314 364 165L364 45C364 41.6863 366.686 39 370 39Z" fill="#FFB200"/>
<path fill-rule="evenodd" clip-rule="evenodd" d="M370 85C373.314 85 376 87.6863 376 91L376 185C376 188.314 373.314 191 370 191C366.686 191 364 188.314 364 185L364 91C364 87.6863 366.686 85 370 85Z" fill="#34B53A"/>
<path fill-rule="evenodd" clip-rule="evenodd" d="M370 142C373.314 142 376 144.686 376 148L376 225C376 228.314 373.314 231 370 231C366.686 231 364 228.314 364 225L364 148C364 144.686 366.686 142 370 142Z" fill="#4339F2"/>
<path fill-rule="evenodd" clip-rule="evenodd" d="M422 71C425.314 71 428 73.6863 428 77L428 175C428 178.314 425.314 181 422 181C418.686 181 416 178.314 416 175L416 77C416 73.6863 418.686 71 422 71Z" fill="#FFB200"/>
<path fill-rule="evenodd" clip-rule="evenodd" d="M422 109C425.314 109 428 111.686 428 115L428 191C428 194.314 425.314 197 422 197C418.686 197 416 194.314 416 191L416 115C416 111.686 418.686 109 422 109Z" fill="#34B53A"/>
<path fill-rule="evenodd" clip-rule="evenodd" d="M422 157C425.314 157 428 159.686 428 163L428 225C428 228.314 425.314 231 422 231C418.686 231 416 228.314 416 225L416 163C416 159.686 418.686 157 422 157Z" fill="#4339F2"/>
<path fill-rule="evenodd" clip-rule="evenodd" d="M474 47C477.314 47 480 49.6863 480 53L480 167C480 170.314 477.314 173 474 173C470.686 173 468 170.314 468 167L468 53C468 49.6863 470.686 47 474 47Z" fill="#FFB200"/>
<path fill-rule="evenodd" clip-rule="evenodd" d="M474 91C477.314 91 480 93.6863 480 97L480 186C480 189.314 477.314 192 474 192C470.686 192 468 189.314 468 186L468 97C468 93.6863 470.686 91 474 91Z" fill="#34B53A"/>
<path fill-rule="evenodd" clip-rule="evenodd" d="M474 146C477.314 146 480 148.686 480 152L480 225C480 228.314 477.314 231 474 231C470.686 231 468 228.314 468 225L468 152C468 148.686 470.686 146 474 146Z" fill="#4339F2"/>
<path fill-rule="evenodd" clip-rule="evenodd" d="M526 138C529.314 138 532 140.686 532 144V196C532 199.314 529.314 202 526 202C522.686 202 520 199.314 520 196V144C520 140.686 522.686 138 526 138Z" fill="#FFB200"/>
<path fill-rule="evenodd" clip-rule="evenodd" d="M526 160C529.314 160 532 162.686 532 166V205C532 208.314 529.314 211 526 211C522.686 211 520 208.314 520 205V166C520 162.686 522.686 160 526 160Z" fill="#34B53A"/>
<path fill-rule="evenodd" clip-rule="evenodd" d="M526 188C529.314 188 532 190.686 532 194V225C532 228.314 529.314 231 526 231C522.686 231 520 228.314 520 225V194C520 190.686 522.686 188 526 188Z" fill="#4339F2"/>
<path fill-rule="evenodd" clip-rule="evenodd" d="M578 0C581.314 0 584 2.68629 584 6V153C584 156.314 581.314 159 578 159C574.686 159 572 156.314 572 153V6C572 2.68629 574.686 0 578 0Z" fill="#FFB200"/>
<path fill-rule="evenodd" clip-rule="evenodd" d="M578 55C581.314 55 584 57.6863 584 61V176C584 179.314 581.314 182 578 182C574.686 182 572 179.314 572 176V61C572 57.6863 574.686 55 578 55Z" fill="#34B53A"/>
<path fill-rule="evenodd" clip-rule="evenodd" d="M578 124C581.314 124 584 126.686 584 130V225C584 228.314 581.314 231 578 231C574.686 231 572 228.314 572 225V130C572 126.686 574.686 124 578 124Z" fill="#4339F2"/>
</svg>
