<svg width="109" height="126" viewBox="0 0 109 126" fill="none" xmlns="http://www.w3.org/2000/svg">
<path fill-rule="evenodd" clip-rule="evenodd" d="M45.9873 0C43.469 0 41.4276 2.04391 41.4276 4.56522C41.4276 7.08652 43.469 9.13043 45.9873 9.13043C75.7022 9.13043 99.7909 33.2487 99.7909 63C99.7909 92.7513 75.7022 116.87 45.9873 116.87C31.8017 116.87 18.4957 111.355 8.51916 101.661C6.7121 99.9045 3.82542 99.9478 2.07159 101.757C0.317758 103.566 0.360914 106.457 2.16798 108.212C13.8296 119.544 29.4062 126 45.9873 126C80.7386 126 108.91 97.7939 108.91 63C108.91 28.2061 80.7386 0 45.9873 0Z" fill="#02A0FC"/>
</svg>
